<?xml version="1.0" encoding="UTF-8"?>
<svg id="Layer_1" xmlns="http://www.w3.org/2000/svg" version="1.1" viewBox="0 0 32 32">
  <!-- Generator: Adobe Illustrator 30.2.1, SVG Export Plug-In . SVG Version: 2.1.1 Build 1)  -->
  <defs>
    <style>
      .st0 {
        fill: #1b2a4a;
      }
    </style>
  </defs>
  <path class="st0" d="M16.06,4.07c-.24-.16-.55-.16-.78,0l-10.06,7.28c-.17.13-.27.33-.27.54v19.11c0,.39.58,1.12,1.18.7l4.97-4.56h8.56c3.74,0,6.77-3.03,6.77-6.77v-8.47c-.01-.22-.12-.42-.31-.54l-10.06-7.28ZM25.07,20c0,3.06-2.48,5.77-5.55,5.77h-8.65l-4.59,3.91V12.84c0-.38.18-.74.49-.97l8.2-5.94c.42-.3.99-.3,1.4,0l8.2,5.94c.31.22.49.58.49.97v7.16Z"/>
  <path class="st0" d="M28.68,9.42L16.1.34c-.26-.19-.61-.19-.87,0l-5.94,4.31V.91c0-.41-.33-.74-.74-.74-.41,0-.74.33-.74.74h0v4.55c0,.07.02.13.04.2l-5.19,3.76c-.31.27-.34.73-.08,1.04.24.27.63.34.94.15L15.67,1.82l12.14,8.79c.35.21.81.1,1.02-.25.19-.31.12-.71-.15-.94Z"/>
  <path class="st0" d="M15.75,10.51c-1.16-.03-2.28.42-3.11,1.24-.81.78-1.26,1.86-1.26,2.98,0,3.11,3.74,7.79,3.9,7.99l.24.3.25-.3c.17-.2,4.2-4.9,4.2-7.86.03-2.36-1.86-4.3-4.22-4.35ZM15.67,17.82c-1.68,0-3.04-1.36-3.04-3.04s1.36-3.04,3.04-3.04,3.04,1.36,3.04,3.04c0,1.68-1.36,3.04-3.04,3.04Z"/>
  <path class="st0" d="M17.1,14.33s-.06-.01-.09-.01c-.01,0-.03,0-.04,0,0,0-.02-.01-.03-.01h-.92v-.92c.02-.09,0-.18-.04-.26-.05-.08-.13-.14-.22-.16-.03,0-.06-.01-.09-.01-.16,0-.31.11-.35.27-.01.05-.01.11,0,.17v.92h-.91s-.05,0-.08,0c-.16,0-.31.11-.35.27-.02.09,0,.19.04.27.05.08.13.14.22.16.03,0,.06.01.09.01.03,0,.05,0,.08,0h.91v.91c-.04.19.07.38.26.43.03,0,.06.01.09.01.16,0,.31-.11.35-.27.01-.05.01-.11,0-.17v-.89h.92s.05,0,.08,0c.16,0,.31-.11.35-.27.02-.09,0-.19-.04-.27-.05-.08-.13-.14-.22-.16ZM14.33,14.96s-.05,0-.07,0c.05.01.1.01.15,0-.02,0-.05,0-.07,0ZM14.22,14.39s.07-.04.1-.04c.02,0,.05,0,.07,0-.06-.02-.12,0-.18.03ZM15.56,13.04s.07-.04.1-.04c.02,0,.05,0,.07,0-.06-.02-.12,0-.18.03ZM15.67,16.3s-.05,0-.07,0c.06.02.12,0,.18-.03-.03.01-.07.04-.1.04ZM17.02,14.37s.05,0,.07,0c-.05-.01-.1-.01-.15,0,.02,0,.05,0,.07,0ZM17.02,14.98s-.05,0-.07,0c.06.02.12,0,.18-.03-.03.01-.07.04-.1.04Z"/>
</svg>